<svg id="visual" viewBox="0 0 900 600" width="900" height="600" xmlns="http://www.w3.org/2000/svg" xmlns:xlink="http://www.w3.org/1999/xlink" version="1.1"><rect x="0" y="0" width="900" height="600" fill="#07090F"></rect><defs><linearGradient id="grad1_0" x1="33.3%" y1="0%" x2="100%" y2="100%"><stop offset="20%" stop-color="#07090f" stop-opacity="1"></stop><stop offset="80%" stop-color="#07090f" stop-opacity="1"></stop></linearGradient></defs><defs><linearGradient id="grad2_0" x1="0%" y1="0%" x2="66.7%" y2="100%"><stop offset="20%" stop-color="#07090f" stop-opacity="1"></stop><stop offset="80%" stop-color="#07090f" stop-opacity="1"></stop></linearGradient></defs><g transform="translate(900, 0)"><path d="M0 486.7C-38 438.5 -76 390.2 -123 378.5C-170 366.9 -225.9 391.8 -279.2 384.3C-332.5 376.7 -383.1 336.7 -393.8 286.1C-404.5 235.5 -375.4 174.3 -384.2 124.8C-393.1 75.4 -439.9 37.7 -486.7 0L0 0Z" fill="#C2AFE6"></path></g><g transform="translate(0, 600)"><path d="M0 -486.7C35.7 -438.1 71.5 -389.5 124.5 -383.3C177.6 -377 247.9 -413.1 286.1 -393.8C324.3 -374.5 330.4 -299.7 339.8 -246.9C349.2 -194.1 362 -163.3 387.1 -125.8C412.1 -88.3 449.4 -44.1 486.7 0L0 0Z" fill="#C2AFE6"></path></g></svg>