<svg id="visual" viewBox="0 0 900 600" width="900" height="600" xmlns="http://www.w3.org/2000/svg" xmlns:xlink="http://www.w3.org/1999/xlink" version="1.1"><rect x="0" y="0" width="900" height="600" fill="#C4B5FD"></rect><path d="M309 600L288.7 585.7C268.3 571.3 227.7 542.7 207.7 514.2C187.7 485.7 188.3 457.3 202.3 428.8C216.3 400.3 243.7 371.7 282.2 343C320.7 314.3 370.3 285.7 400.8 257C431.3 228.3 442.7 199.7 431 171.2C419.3 142.7 384.7 114.3 343.8 85.8C303 57.3 256 28.7 232.5 14.3L209 0L900 0L900 14.3C900 28.7 900 57.3 900 85.8C900 114.3 900 142.7 900 171.2C900 199.7 900 228.3 900 257C900 285.7 900 314.3 900 343C900 371.7 900 400.3 900 428.8C900 457.3 900 485.7 900 514.2C900 542.7 900 571.3 900 585.7L900 600Z" fill="#a78bfa"></path><path d="M500 600L471 585.7C442 571.3 384 542.7 360.3 514.2C336.7 485.7 347.3 457.3 377.2 428.8C407 400.3 456 371.7 489.8 343C523.7 314.3 542.3 285.7 534.3 257C526.3 228.3 491.7 199.7 470.2 171.2C448.7 142.7 440.3 114.3 453.5 85.8C466.7 57.3 501.3 28.7 518.7 14.3L536 0L900 0L900 14.3C900 28.7 900 57.3 900 85.8C900 114.3 900 142.7 900 171.2C900 199.7 900 228.3 900 257C900 285.7 900 314.3 900 343C900 371.7 900 400.3 900 428.8C900 457.3 900 485.7 900 514.2C900 542.7 900 571.3 900 585.7L900 600Z" fill="#8d72d1"></path><path d="M632 600L606 585.7C580 571.3 528 542.7 499 514.2C470 485.7 464 457.3 486.5 428.8C509 400.3 560 371.7 591 343C622 314.3 633 285.7 610.8 257C588.7 228.3 533.3 199.7 498.3 171.2C463.3 142.7 448.7 114.3 446.3 85.8C444 57.3 454 28.7 459 14.3L464 0L900 0L900 14.3C900 28.7 900 57.3 900 85.8C900 114.3 900 142.7 900 171.2C900 199.7 900 228.3 900 257C900 285.7 900 314.3 900 343C900 371.7 900 400.3 900 428.8C900 457.3 900 485.7 900 514.2C900 542.7 900 571.3 900 585.7L900 600Z" fill="#745baa"></path><path d="M581 600L580.5 585.7C580 571.3 579 542.7 597.3 514.2C615.7 485.7 653.3 457.3 655 428.8C656.7 400.3 622.3 371.7 607.5 343C592.7 314.3 597.3 285.7 600.7 257C604 228.3 606 199.7 611.8 171.2C617.7 142.7 627.3 114.3 622 85.8C616.7 57.3 596.3 28.7 586.2 14.3L576 0L900 0L900 14.3C900 28.7 900 57.3 900 85.8C900 114.3 900 142.7 900 171.2C900 199.7 900 228.3 900 257C900 285.7 900 314.3 900 343C900 371.7 900 400.3 900 428.8C900 457.3 900 485.7 900 514.2C900 542.7 900 571.3 900 585.7L900 600Z" fill="#5b4484"></path><path d="M737 600L750.3 585.7C763.7 571.3 790.3 542.7 802.8 514.2C815.3 485.7 813.7 457.3 814.5 428.8C815.3 400.3 818.7 371.7 807.7 343C796.7 314.3 771.3 285.7 754.7 257C738 228.3 730 199.7 722.5 171.2C715 142.7 708 114.3 712.5 85.8C717 57.3 733 28.7 741 14.3L749 0L900 0L900 14.3C900 28.7 900 57.3 900 85.8C900 114.3 900 142.7 900 171.2C900 199.7 900 228.3 900 257C900 285.7 900 314.3 900 343C900 371.7 900 400.3 900 428.8C900 457.3 900 485.7 900 514.2C900 542.7 900 571.3 900 585.7L900 600Z" fill="#422f61"></path></svg>