<svg id="visual" viewBox="0 0 900 600" width="900" height="600" xmlns="http://www.w3.org/2000/svg" xmlns:xlink="http://www.w3.org/1999/xlink" version="1.1"><path d="M800 600L800 583.3C800 566.7 800 533.3 803 500C806 466.7 812 433.3 810.5 400C809 366.7 800 333.3 794 300C788 266.7 785 233.3 779 200C773 166.7 764 133.3 765.5 100C767 66.7 779 33.3 785 16.7L791 0L900 0L900 16.7C900 33.3 900 66.7 900 100C900 133.3 900 166.7 900 200C900 233.3 900 266.7 900 300C900 333.3 900 366.7 900 400C900 433.3 900 466.7 900 500C900 533.3 900 566.7 900 583.3L900 600Z" fill="#422f61"></path><path d="M557 600L563 583.3C569 566.7 581 533.3 573.5 500C566 466.7 539 433.3 539 400C539 366.7 566 333.3 576.5 300C587 266.7 581 233.3 566 200C551 166.7 527 133.3 506 100C485 66.7 467 33.3 458 16.7L449 0L792 0L786 16.7C780 33.3 768 66.7 766.5 100C765 133.3 774 166.7 780 200C786 233.3 789 266.7 795 300C801 333.3 810 366.7 811.5 400C813 433.3 807 466.7 804 500C801 533.3 801 566.7 801 583.3L801 600Z" fill="#2e274f"></path><path d="M485 600L488 583.3C491 566.7 497 533.3 479 500C461 466.7 419 433.3 420.5 400C422 366.7 467 333.3 488 300C509 266.7 506 233.3 492.5 200C479 166.7 455 133.3 428 100C401 66.7 371 33.3 356 16.7L341 0L450 0L459 16.7C468 33.3 486 66.7 507 100C528 133.3 552 166.7 567 200C582 233.3 588 266.7 577.5 300C567 333.3 540 366.7 540 400C540 433.3 567 466.7 574.5 500C582 533.3 570 566.7 564 583.3L558 600Z" fill="#1e1e3c"></path><path d="M134 600L138.5 583.3C143 566.7 152 533.3 152 500C152 466.7 143 433.3 150.5 400C158 366.7 182 333.3 191 300C200 266.7 194 233.3 183.5 200C173 166.7 158 133.3 152 100C146 66.7 149 33.3 150.5 16.7L152 0L342 0L357 16.7C372 33.3 402 66.7 429 100C456 133.3 480 166.7 493.5 200C507 233.3 510 266.7 489 300C468 333.3 423 366.7 421.5 400C420 433.3 462 466.7 480 500C498 533.3 492 566.7 489 583.3L486 600Z" fill="#111529"></path><path d="M0 600L0 583.3C0 566.7 0 533.3 0 500C0 466.7 0 433.3 0 400C0 366.7 0 333.3 0 300C0 266.7 0 233.3 0 200C0 166.7 0 133.3 0 100C0 66.7 0 33.3 0 16.7L0 0L153 0L151.5 16.7C150 33.3 147 66.7 153 100C159 133.3 174 166.7 184.5 200C195 233.3 201 266.7 192 300C183 333.3 159 366.7 151.5 400C144 433.3 153 466.7 153 500C153 533.3 144 566.7 139.5 583.3L135 600Z" fill="#020617"></path></svg>